<svg xmlns="http://www.w3.org/2000/svg" width="200" height="200" viewBox="0 0 200 200">
    <rect width="200" height="200" fill="#f4f8ff" rx="40" />
    <circle cx="100" cy="100" r="90" fill="#7BDCB5"/>

    <!-- 狗狗头像 -->
    <circle cx="100" cy="90" r="50" fill="#fff" />
    <!-- 耳朵 -->
    <circle cx="65" cy="50" r="20" fill="#333" />
    <circle cx="140" cy="90" r="12" fill="#333" />
    <circle cx="60" cy="90" r="12" fill="#000" />
    <circle cx="140" cy="90" r="12" fill="#000" />

    <!-- 眼睛 -->
    <circle cx="85" cy="80" r="6" fill="#000" />
    <circle cx="115" cy="80" r="6" fill="#000" />

    <!-- 鼻子 -->
    <ellipse cx="100" cy="100" rx="8" ry="5" fill="#000" />

    <!-- 嘴巴 -->
    <path d="M 100 105 Q 90 115 100 120 Q 110 115 100 105" stroke="#000" fill="none" stroke-width="2" />

    <!-- 狗仔帽 -->
    <rect x="60" y="30" width="80" height="25" fill="#333" rx="10" />
    <rect x="55" y="55" width="90" height="8" fill="#000" />

    <!-- 调整后的放大镜 -->
    <circle cx="140" cy="140" r="15" fill="#fff" stroke="#000" stroke-width="3" />
    <rect x="137" y="150" width="8" height="25" fill="#000" transform="rotate(45 140 140)" />

    <!-- 代码图标 -->
    <text x="60" y="180" fill="#fff" font-family="Arial" font-size="20" font-weight="bold">
        &lt;/&gt;
    </text>
</svg>
