<?xml version="1.0" standalone="no"?><!DOCTYPE svg PUBLIC "-//W3C//DTD SVG 1.1//EN" "http://www.w3.org/Graphics/SVG/1.1/DTD/svg11.dtd"><svg t="1743159495069" class="icon" viewBox="0 0 1024 1024" version="1.1" xmlns="http://www.w3.org/2000/svg" p-id="4931" xmlns:xlink="http://www.w3.org/1999/xlink" width="200" height="200"><path d="M472.405333 809.642667c177.493333 17.749333 337.237333-111.957333 354.986667-289.450667s-111.957333-337.237333-289.450667-354.986667M537.941333 165.205333c-177.493333-17.749333-337.237333 111.957333-354.986666 289.450667s111.957333 337.237333 289.450666 354.986667" fill="#AEECFF" p-id="4932"></path><path d="M789.162667 593.92c-4.096 0-9.557333 1.365333-9.557334 2.730667s-6.826667 4.096-8.192 4.096c-1.365333 0-6.826667 5.461333-6.826666 8.192h-9.557334c-1.365333 0-5.461333 2.730667-5.461333 5.461333 0 1.365333-1.365333 1.365333-2.730667 0l-2.730666 2.730667-2.730667 1.365333c-1.365333 4.096-8.192 10.922667-9.557333 10.922667-1.365333 0-2.730667 8.192-2.730667 12.288s0 8.192 1.365333 9.557333V659.456c-1.365333 4.096 1.365333 8.192 2.730667 9.557333 1.365333 1.365333 9.557333 0 12.288-1.365333 1.365333 0 2.730667-1.365333 4.096-1.365333 17.749333-23.210667 30.037333-46.421333 39.594667-72.362667zM281.258667 548.864c0 1.365333 4.096 6.826667 6.826666 9.557333 1.365333 2.730667 5.461333 12.288 6.826667 15.018667 0 2.730667 0 8.192-1.365333 9.557333 0 1.365333 0 4.096 1.365333 5.461334 0 1.365333-2.730667 9.557333-2.730667 13.653333 0 4.096-5.461333 15.018667-6.826666 20.48 0 5.461333 1.365333 13.653333 2.730666 13.653333s1.365333 5.461333-1.365333 5.461334c-1.365333 0-4.096 5.461333-2.730667 5.461333 1.365333 0 0 5.461333 0 6.826667v17.749333c0 2.730667 4.096 10.922667 4.096 13.653333s1.365333 6.826667 1.365334 8.192 0 1.365333 1.365333 1.365334c0 0 2.730667 1.365333 4.096 2.730666 1.365333 1.365333 8.192 1.365333 9.557333 1.365334 2.730667 0 0-2.730667 0-4.096-1.365333-1.365333-1.365333-6.826667-2.730666-6.826667s-1.365333-8.192 0-9.557333c1.365333-1.365333 5.461333-2.730667 5.461333-4.096s1.365333-6.826667 0-8.192c-1.365333-1.365333 1.365333-8.192 1.365333-12.288 0-4.096 6.826667-6.826667 8.192-9.557334 0-2.730667 8.192-5.461333 10.922667-6.826666 1.365333-1.365333 4.096-9.557333 4.096-10.922667s2.730667-2.730667 4.096-2.730667c1.365333 0 4.096-1.365333 4.096-1.365333l4.096-4.096c1.365333-1.365333 4.096-9.557333 6.826667-10.922667 1.365333-1.365333 4.096-6.826667 4.096-8.192s4.096-5.461333 4.096-6.826666c1.365333-1.365333 8.192-4.096 9.557333-4.096s4.096-12.288 5.461333-15.018667c1.365333-4.096 4.096-9.557333 4.096-10.922667s2.730667-2.730667 2.730667-2.730666 2.730667-5.461333 4.096-6.826667 5.461333-5.461333 5.461333-6.826667 1.365333-4.096 1.365334-6.826666v-2.730667-4.096c-1.365333-4.096-4.096-8.192-5.461334-6.826667-1.365333 1.365333-5.461333-4.096-6.826666-4.096-2.730667-1.365333-8.192-2.730667-9.557334-2.730666-1.365333 0-5.461333-4.096-8.192-5.461334-2.730667-1.365333-8.192-2.730667-8.192-2.730666-1.365333-1.365333-1.365333-9.557333-5.461333-12.288-4.096-2.730667-10.922667-10.922667-12.288-12.288 0-2.730667-8.192-8.192-10.922667-9.557334-2.730667-1.365333-6.826667-2.730667-6.826666-1.365333 0 0-2.730667-5.461333-5.461334-6.826667-1.365333-1.365333-6.826667-2.730667-6.826666-2.730666 0 1.365333-4.096 0-4.096-1.365334-1.365333-1.365333-4.096 0-5.461334 0-1.365333 0-6.826667 6.826667-8.192 8.192-2.730667 1.365333-4.096-1.365333-5.461333-2.730666-1.365333-1.365333-6.826667 0-8.192 1.365333-1.365333 1.365333-4.096-6.826667-2.730667-10.922667 1.365333-4.096-2.730667-10.922667-5.461333-12.288-2.730667 0-2.730667-8.192-2.730667-10.922666 1.365333-2.730667-5.461333-5.461333-6.826666-5.461334s-5.461333 2.730667-6.826667 5.461334c-1.365333 1.365333-15.018667-4.096-12.288-12.288 2.730667-8.192 9.557333-16.384 12.288-17.749334 1.365333-1.365333 10.922667 0 12.288 1.365334 1.365333 1.365333 4.096 0 4.096 0s8.192 1.365333 9.557333 1.365333c2.730667 1.365333 4.096 9.557333 6.826667 10.922667 2.730667 1.365333 4.096-5.461333 4.096-6.826667 0-1.365333 0-5.461333-1.365333-6.826667 0-1.365333 5.461333-10.922667 8.192-12.288 4.096-1.365333 8.192-6.826667 8.192-8.192 0-1.365333 2.730667-1.365333 4.096-1.365333 1.365333 0 1.365333-8.192 2.730666-10.922667 1.365333-1.365333 8.192-5.461333 10.922667-5.461333s4.096-5.461333 4.096-6.826667c0-1.365333 5.461333-5.461333 9.557333-6.826666 2.730667 0 5.461333 2.730667 5.461334 2.730666s5.461333-2.730667 6.826666-2.730666c2.730667-1.365333 0-5.461333-1.365333-6.826667-1.365333-1.365333 0-5.461333 1.365333-5.461333s4.096-4.096 2.730667-5.461334c0-1.365333 6.826667 1.365333 9.557333 0 2.730667-1.365333 0 5.461333-1.365333 8.192-2.730667 2.730667 1.365333 5.461333 2.730667 5.461334s2.730667 1.365333 2.730666 2.730666 2.730667 0 5.461334 0c1.365333 1.365333 2.730667-2.730667 4.096-4.096 0-1.365333-4.096-5.461333-4.096-6.826666V327.68c0-2.730667-2.730667-5.461333-4.096-5.461333-1.365333 0-2.730667-5.461333-4.096-8.192-1.365333-1.365333-1.365333-4.096-1.365334-5.461334 0-1.365333-4.096-6.826667-5.461333-9.557333-1.365333-2.730667-2.730667-2.730667-2.730667-1.365333s-4.096 1.365333-5.461333 0c-1.365333 0-2.730667-6.826667-1.365333-8.192 0-2.730667-6.826667-2.730667-6.826667-5.461334-1.365333-1.365333-5.461333-1.365333-5.461333-2.730666s-4.096-2.730667-5.461334-2.730667-2.730667 16.384-2.730666 20.48c-1.365333 4.096-5.461333 8.192-6.826667 6.826667-1.365333 0-1.365333 2.730667 0 2.730666s-2.730667 4.096-4.096 8.192c-1.365333 2.730667-4.096 0-4.096-4.096 0-2.730667-2.730667-6.826667-4.096-6.826666-1.365333 1.365333-2.730667-1.365333-4.096-1.365334-1.365333 0-6.826667-4.096-9.557333-5.461333-2.730667-1.365333-2.730667-9.557333-4.096-9.557333-1.365333-1.365333 0-1.365333 0-2.730667s5.461333-5.461333 6.826666-6.826667l9.557334-9.557333c2.730667-1.365333 4.096-5.461333 4.096-5.461333 0-1.365333 9.557333-2.730667 12.288-2.730667 2.730667 0 5.461333-6.826667 5.461333-9.557333 0-1.365333-1.365333-5.461333-2.730667-6.826667h5.461334c1.365333 1.365333 6.826667-1.365333 8.192 0s5.461333 4.096 8.192 5.461333l-1.365334 5.461334-1.365333 8.192c-8.192 2.730667-9.557333 6.826667-8.192 6.826666 2.730667 0 13.653333 6.826667 16.384 9.557334 2.730667 2.730667 4.096-2.730667 5.461333-5.461334 1.365333-1.365333 1.365333-6.826667 1.365334-8.192-1.365333-1.365333 4.096 0 5.461333 1.365334 1.365333 1.365333 2.730667-1.365333 4.096-1.365334 1.365333 0 1.365333-5.461333 2.730667-5.461333 0-1.365333-1.365333-2.730667-1.365334-2.730667 0-1.365333-5.461333-4.096-6.826666-5.461333-1.365333-1.365333-1.365333-4.096-1.365334-5.461333 1.365333 0 0-5.461333-1.365333-6.826667 0-1.365333-5.461333-2.730667-8.192-4.096-1.365333 0-2.730667-4.096-4.096-5.461333-1.365333-1.365333-8.192-2.730667-9.557333-1.365334-1.365333 0-4.096-5.461333-8.192-4.096-2.730667 1.365333-5.461333-2.730667-6.826667-4.096-1.365333-1.365333-9.557333 5.461333-9.557333 10.922667s1.365333 10.922667 2.730666 10.922667-1.365333 5.461333-2.730666 5.461333c-1.365333 1.365333-4.096-1.365333-2.730667-2.730667 1.365333-1.365333-2.730667-6.826667-4.096-9.557333-1.365333-1.365333-4.096-4.096-6.826667-4.096l-4.096 4.096c0 1.365333 1.365333 4.096 0 6.826667s-4.096 2.730667-4.096 1.365333c0 0-1.365333-1.365333-2.730666-1.365333-42.325333 40.96-72.362667 94.208-86.016 152.917333 1.365333 1.365333 2.730667 4.096 2.730666 5.461333 0 2.730667 5.461333 5.461333 5.461334 5.461334 1.365333 0 1.365333-5.461333 1.365333-6.826667s1.365333-2.730667 1.365333-1.365333 4.096 6.826667 5.461334 8.192c1.365333 1.365333 1.365333 13.653333 2.730666 16.384 1.365333 2.730667 15.018667 9.557333 19.114667 10.922666s9.557333 6.826667 10.922667 8.192 6.826667 2.730667 8.192 4.096c1.365333 1.365333 4.096 5.461333 5.461333 5.461334 1.365333 1.365333 1.365333 4.096 1.365333 4.096s8.192 4.096 9.557334 6.826666c1.365333 2.730667 5.461333 2.730667 5.461333 1.365334 1.365333-1.365333 1.365333 4.096 2.730667 6.826666v6.826667s-2.730667 8.192-4.096 9.557333c-1.365333 1.365333-5.461333 12.288-5.461334 15.018667s4.096 6.826667 5.461334 8.192c1.365333 1.365333 0 2.730667 0 2.730667-1.365333 0-1.365333 10.922667 1.365333 13.653333 1.365333 16.384 2.730667 20.48 2.730667 20.48zM337.237333 367.274667c-1.365333 0-1.365333 0 0 0z" fill="#FFFFFF" p-id="4933"></path><path d="M329.045333 234.837333c4.096 0 10.922667 0 10.922667-1.365333s1.365333-4.096 0-4.096h1.365333c1.365333 0 4.096-8.192 6.826667-9.557333 1.365333-1.365333 10.922667-4.096 12.288-4.096 2.730667-1.365333 6.826667-5.461333 9.557333-5.461334 1.365333 0 4.096-4.096 4.096-5.461333 0-1.365333 6.826667-4.096 8.192-5.461333 2.730667-1.365333 4.096-4.096 2.730667-4.096 0 0-15.018667 5.461333-25.941333 10.922666-15.018667 8.192-27.306667 17.749333-40.96 25.941334 2.730667 4.096 8.192 2.730667 10.922666 2.730666zM512 638.976c4.096-1.365333 12.288-10.922667 15.018667-13.653333 2.730667-1.365333 5.461333-9.557333 5.461333-10.922667s4.096-4.096 5.461333-4.096c1.365333 0 6.826667-16.384 10.922667-20.48 4.096-2.730667 9.557333-20.48 10.922667-25.941333 0-6.826667 4.096-19.114667 5.461333-20.48 1.365333-2.730667 6.826667-8.192 8.192-8.192 1.365333-1.365333 10.922667-13.653333 15.018667-17.749334 2.730667-4.096 6.826667-13.653333 6.826666-16.384s-6.826667-4.096-6.826666-4.096c-1.365333 1.365333-6.826667 1.365333-8.192 1.365334-1.365333 0-5.461333-10.922667-6.826667-12.288-2.730667-2.730667-4.096-13.653333-5.461333-16.384-1.365333-2.730667-5.461333-8.192-5.461334-9.557334-2.730667 2.730667-2.730667-2.730667-2.730666-5.461333 0-1.365333 2.730667 1.365333 2.730666 4.096 0 2.730667 5.461333 12.288 8.192 16.384 1.365333 4.096 6.826667 13.653333 6.826667 17.749333 1.365333 2.730667 13.653333 2.730667 17.749333 1.365334 4.096-1.365333 9.557333-4.096 9.557334-5.461334 0-1.365333 6.826667-2.730667 8.192-4.096 1.365333-1.365333 4.096-8.192 5.461333-9.557333 1.365333-1.365333 0-8.192-1.365333-10.922667s-6.826667-4.096-8.192-4.096c-1.365333 1.365333-4.096-5.461333-4.096-6.826666-1.365333-2.730667-5.461333-5.461333-5.461334-6.826667s1.365333-4.096 2.730667-4.096 9.557333 6.826667 10.922667 9.557333c2.730667 2.730667 4.096 9.557333 5.461333 10.922667 0 1.365333 6.826667 2.730667 9.557333 1.365333 1.365333-1.365333 4.096 0 4.096 1.365334h10.922667c2.730667 4.096 4.096 8.192 4.096 8.192 0 1.365333 1.365333 4.096 2.730667 4.096s1.365333 5.461333 2.730666 6.826666c0 1.365333 4.096 9.557333 4.096 12.288s4.096 9.557333 4.096 12.288c1.365333 1.365333 1.365333 6.826667 1.365334 8.192s2.730667 4.096 4.096 4.096c1.365333 0 6.826667-10.922667 8.192-15.018666 1.365333-4.096 4.096-6.826667 5.461333-6.826667 1.365333 0 1.365333-2.730667 1.365333-2.730667 0-1.365333 4.096 0 5.461334-1.365333 0-1.365333 2.730667-8.192 4.096-9.557333 1.365333-1.365333 8.192-4.096 9.557333-4.096 2.730667 0 6.826667 4.096 8.192 6.826666 1.365333 2.730667 1.365333 6.826667 1.365333 8.192s2.730667 5.461333 5.461334 5.461334 2.730667 4.096 2.730666 5.461333c0 1.365333 2.730667 5.461333 4.096 6.826667 0 1.365333 0 5.461333-1.365333 6.826666 0 1.365333-1.365333 6.826667 0 8.192 0 1.365333 8.192 10.922667 10.922667 13.653334 2.730667 2.730667 5.461333-4.096 4.096-6.826667-1.365333-2.730667-6.826667-8.192-6.826667-10.922667-1.365333-1.365333 0-8.192 0-10.922666 0-1.365333 4.096 1.365333 6.826667 2.730666 1.365333 1.365333 4.096 5.461333 4.096 5.461334 0 1.365333 12.288-4.096 12.288-10.922667 1.365333-6.826667 5.461333-13.653333 5.461333-16.384 0-1.365333 0-4.096-1.365333-4.096s2.730667-5.461333 5.461333-4.096c2.730667 0 10.922667-6.826667 13.653333-10.922667 2.730667-2.730667 5.461333-5.461333 6.826667-5.461333 0 0 4.096-8.192 4.096-10.922667 1.365333-2.730667-1.365333-8.192-1.365333-9.557333s-2.730667-5.461333-2.730667-6.826667-1.365333-5.461333 0-6.826666c0-1.365333 4.096-1.365333 4.096-2.730667s4.096-4.096 4.096-5.461333 1.365333 2.730667 2.730667 4.096c1.365333 1.365333 2.730667 9.557333 4.096 10.922666 1.365333 1.365333 9.557333-8.192 9.557333-13.653333 0-6.826667 4.096-13.653333 5.461333-13.653333s5.461333-5.461333 8.192-8.192c-10.922667-47.786667-32.768-90.112-62.805333-126.976h-1.365333l-2.730667-1.365334c-4.096-1.365333-6.826667-6.826667-5.461333-8.192v-2.730666c-2.730667-2.730667-4.096-5.461333-6.826667-8.192h-5.461333c-2.730667 0-8.192-2.730667-9.557334-4.096-1.365333-1.365333-4.096 0-5.461333 2.730666 0 1.365333-6.826667 2.730667-6.826667 4.096-1.365333 1.365333-4.096 1.365333-4.096 0s-6.826667 1.365333-9.557333 1.365334c-2.730667 0-8.192 1.365333-9.557333 2.730666-1.365333 0-4.096 2.730667-5.461334 4.096 0 1.365333-4.096 2.730667-5.461333 2.730667-1.365333 0-1.365333 5.461333 0 6.826667 1.365333 1.365333-2.730667-1.365333-4.096-2.730667-1.365333-1.365333-4.096 1.365333-5.461333 2.730667-1.365333 1.365333-2.730667-1.365333-2.730667-2.730667s-4.096-2.730667-5.461333-2.730667c-1.365333 1.365333-4.096-1.365333-5.461334-1.365333-1.365333-1.365333-8.192 4.096-10.922666 6.826667-2.730667 1.365333-13.653333 2.730667-15.018667 1.365333-1.365333-1.365333-4.096 4.096-2.730667 5.461333 1.365333 0-4.096-1.365333-8.192-1.365333-2.730667 0-13.653333 2.730667-16.384 4.096-2.730667 1.365333-4.096-1.365333-4.096-2.730667s-6.826667-1.365333-8.192-1.365333-4.096 6.826667-5.461333 8.192-4.096-6.826667-8.192-8.192c-4.096-1.365333-10.922667-6.826667-12.288-6.826667l-6.826667-6.826666c-1.365333-1.365333-6.826667-2.730667-8.192-2.730667-1.365333 0-8.192 2.730667-9.557333 4.096-9.557333 4.096-10.922667 4.096-12.288 4.096s-8.192 6.826667-10.922667 8.192c-2.730667 1.365333-8.192 9.557333-9.557333 12.288-1.365333 1.365333-4.096 2.730667-4.096 2.730667-1.365333 0-1.365333 2.730667-1.365333 2.730666 0 1.365333-8.192 4.096-9.557334 6.826667-1.365333 2.730667 0 10.922667-1.365333 13.653333 0 2.730667 1.365333 8.192 4.096 9.557334 2.730667 0 0 5.461333 0 6.826666-1.365333 1.365333 1.365333 2.730667 1.365333 4.096s-5.461333 2.730667-6.826666 2.730667c-1.365333 0-4.096 4.096-5.461334 5.461333 0 1.365333-5.461333 1.365333-6.826666 2.730667 0-1.365333 1.365333-2.730667 1.365333-4.096 1.365333-1.365333 0-5.461333 0-5.461333-1.365333-1.365333 0-9.557333-1.365333-12.288 2.730667-4.096 0-6.826667 0-8.192-1.365333-1.365333 1.365333-2.730667 1.365333-4.096 0-1.365333-4.096-1.365333-5.461333-1.365334-1.365333 0-2.730667 9.557333-4.096 12.288-1.365333 2.730667 1.365333 6.826667 2.730666 6.826667s0 4.096-1.365333 4.096-4.096 6.826667-2.730667 8.192c1.365333 1.365333-1.365333 4.096-2.730666 5.461333-1.365333 0 6.826667 1.365333 9.557333 1.365334 2.730667 0 5.461333 1.365333 5.461333 2.730666 0 0-6.826667 0-8.192 1.365334s-5.461333 4.096-6.826666 4.096c-1.365333 1.365333 1.365333 4.096 2.730666 4.096s2.730667 6.826667 4.096 8.192c1.365333 1.365333 0 4.096 0 5.461333-1.365333-1.365333-8.192-2.730667-12.288-2.730667-2.730667 0-8.192 6.826667-8.192 9.557334v12.288c0 1.365333 6.826667 4.096 8.192 5.461333 1.365333 1.365333 8.192 1.365333 8.192 1.365333 1.365333 1.365333 6.826667-5.461333 6.826667-9.557333 1.365333-2.730667 8.192-8.192 9.557333-10.922667 1.365333-2.730667 8.192-1.365333 10.922667-1.365333 1.365333-1.365333 0 5.461333 1.365333 9.557333 0 4.096 6.826667 4.096 6.826667 0s1.365333-5.461333 1.365333-4.096c0 1.365333 6.826667 4.096 8.192 6.826667s0 5.461333-1.365333 5.461333-1.365333 4.096 0 5.461334c1.365333 0 4.096-4.096 5.461333-5.461334 1.365333 0 4.096-4.096 2.730667-4.096-1.365333 0 1.365333-2.730667 2.730667-2.730666 1.365333 1.365333-2.730667-6.826667-5.461334-10.922667-2.730667-2.730667 0-1.365333 4.096 2.730667l2.730667 5.461333c0 1.365333 1.365333 4.096 1.365333 5.461333l1.365334 1.365334v8.192c0 1.365333 2.730667 4.096 4.096 4.096s2.730667 1.365333 2.730666 1.365333 1.365333 4.096 2.730667 4.096 2.730667-4.096 1.365333-4.096-1.365333-6.826667-1.365333-9.557333c0-2.730667 1.365333-5.461333 2.730667-5.461334 0 0 0 5.461333-1.365334 6.826667 0 1.365333 0 4.096 1.365334 5.461333l1.365333 1.365334 4.096 4.096c5.461333-1.365333 13.653333 1.365333 13.653333 2.730666s4.096 1.365333 4.096 0v1.365334c0 1.365333-4.096 5.461333-5.461333 8.192-1.365333 2.730667-13.653333 0-19.114667-1.365334-5.461333-1.365333-13.653333 0-15.018666 1.365334-1.365333 1.365333-9.557333-5.461333-13.653334-6.826667-4.096-2.730667-6.826667-8.192-6.826666-9.557333-1.365333-1.365333 1.365333-2.730667 1.365333-4.096 0-1.365333-9.557333-2.730667-12.288-1.365334-2.730667 1.365333-16.384 1.365333-20.48 1.365334-4.096 1.365333-8.192-1.365333-9.557333-1.365334-1.365333 0-5.461333 4.096-8.192 4.096-1.365333 0-5.461333 6.826667-6.826667 13.653334l-2.730667 4.096-1.365333 2.730666c-5.461333 2.730667-10.922667 13.653333-13.653333 16.384-1.365333 2.730667-4.096 19.114667-5.461334 23.210667 0 5.461333 2.730667 17.749333 4.096 20.48 1.365333 4.096 8.192 12.288 10.922667 13.653333 2.730667 1.365333 12.288 2.730667 15.018667 4.096 2.730667 0 6.826667-2.730667 8.192-5.461333l4.096 1.365333h1.365333c0 2.730667 6.826667 5.461333 8.192 6.826667 1.365333 1.365333 5.461333 1.365333 6.826667 0 1.365333 0 1.365333 10.922667 0 15.018667-1.365333 2.730667 1.365333 15.018667 1.365333 19.114666s4.096 13.653333 4.096 17.749334c0 4.096-4.096 15.018667-5.461333 19.114666-1.365333 4.096 4.096 16.384 4.096 20.48 1.365333 4.096 1.365333 12.288 1.365333 15.018667 0 1.365333 4.096 13.653333 5.461333 19.114667 0-2.730667 15.018667 0 19.114667-2.730667zM778.24 525.653333c0 1.365333 4.096-1.365333 6.826667-1.365333s4.096-5.461333 2.730666-6.826667c-1.365333 0-4.096-5.461333-5.461333-6.826666-1.365333-1.365333-4.096 1.365333-4.096 4.096 0 1.365333-4.096 2.730667-5.461333 4.096-1.365333 1.365333-1.365333 2.730667 0 2.730666s5.461333 4.096 5.461333 4.096zM771.413333 557.056c1.365333 0 0-6.826667-1.365333-6.826667-2.730667-1.365333-9.557333 6.826667-9.557333 12.288 1.365333 5.461333 2.730667 5.461333 2.730666 4.096 1.365333-1.365333 4.096 1.365333 5.461334 1.365334 1.365333 0 1.365333 0 0-2.730667 0-1.365333 1.365333-6.826667 2.730666-8.192zM759.125333 550.229333c0-2.730667 1.365333-8.192 2.730667-9.557333 0-1.365333-2.730667-5.461333-5.461333-6.826667-1.365333-1.365333-9.557333 12.288-15.018667 13.653334-5.461333 1.365333-6.826667 10.922667-6.826667 12.288 1.365333 2.730667 10.922667 4.096 12.288 5.461333 1.365333 1.365333 4.096 0 4.096 0 1.365333 0 1.365333-1.365333 0-1.365333 0 0 4.096-4.096 4.096-6.826667 2.730667-1.365333 4.096-4.096 4.096-6.826667zM731.818667 570.709333c-4.096-1.365333-8.192 0-8.192 1.365334s13.653333 5.461333 17.749333 6.826666c4.096 1.365333 6.826667 2.730667 6.826667 1.365334-2.730667 0-13.653333-8.192-16.384-9.557334z" fill="#FFFFFF" p-id="4934"></path><path d="M768.682667 484.693333c1.365333-1.365333 0-9.557333-2.730667-8.192-1.365333 1.365333-1.365333 5.461333-1.365333 8.192 1.365333 1.365333 2.730667 1.365333 4.096 0zM774.144 501.077333c1.365333-1.365333 0-4.096-4.096-5.461333-2.730667-1.365333-4.096 8.192-2.730667 9.557333 4.096 1.365333 6.826667-2.730667 6.826667-4.096zM785.066667 557.056c4.096 2.730667 12.288 2.730667 12.288-2.730667-4.096-2.730667-12.288-2.730667-12.288 2.730667zM794.624 447.829333c-1.365333 1.365333-2.730667 4.096-2.730667 4.096-1.365333 0-1.365333 4.096 0 5.461334s4.096-2.730667 6.826667-4.096c1.365333-1.365333 5.461333-1.365333 5.461333-1.365334s2.730667 0 6.826667-1.365333l1.365333-1.365333c0-4.096-1.365333-6.826667-1.365333-10.922667-1.365333 1.365333-4.096 1.365333-4.096 2.730667-2.730667 2.730667-10.922667 5.461333-12.288 6.826666zM703.146667 533.845333zM723.626667 555.690667c-1.365333-2.730667-5.461333-8.192-8.192-12.288l-1.365334-2.730667-1.365333-2.730667c-1.365333-2.730667-5.461333-5.461333-5.461333-6.826666s-2.730667 2.730667-4.096 1.365333c1.365333 0 2.730667 1.365333 4.096 4.096 4.096 4.096 9.557333 23.210667 12.288 24.576 1.365333 4.096 5.461333-1.365333 4.096-5.461333zM663.552 517.461333c-1.365333 2.730667 5.461333 8.192 5.461333 6.826667 1.365333-1.365333 0-6.826667-1.365333-8.192-1.365333-1.365333-2.730667-1.365333-4.096 1.365333zM561.152 615.765333c0 2.730667 5.461333 5.461333 6.826667 4.096 1.365333 0 6.826667-6.826667 6.826666-9.557333 1.365333-2.730667 1.365333-6.826667 1.365334-8.192 0-1.365333 1.365333-4.096 1.365333-4.096l2.730667-5.461333c1.365333-2.730667-1.365333-16.384-1.365334-17.749334 0-2.730667-2.730667 1.365333-4.096 2.730667-1.365333 2.730667-8.192 6.826667-9.557333 8.192-1.365333 1.365333-4.096 8.192-4.096 9.557333 0 1.365333-1.365333 5.461333-1.365333 6.826667 0 2.730667 1.365333 10.922667 1.365333 13.653333zM324.949333 678.570667h4.096c1.365333-4.096-4.096-4.096-4.096 0zM484.693333 217.088c-1.365333 0-6.826667-1.365333-6.826666-2.730667s-8.192-2.730667-9.557334-1.365333c-2.730667 0 0-5.461333 2.730667-5.461333s1.365333-4.096-2.730667-5.461334c-2.730667 0-10.922667-2.730667-12.288-1.365333-1.365333 0-5.461333-1.365333-6.826666-2.730667-1.365333 0-10.922667 1.365333-15.018667 1.365334s-15.018667-1.365333-16.384-1.365334c-2.730667 0-4.096 4.096-4.096 6.826667 0 1.365333-10.922667 0-13.653333 0-2.730667 0-20.48 1.365333-24.576 4.096-5.461333 1.365333-9.557333 8.192-8.192 8.192 1.365333 0-2.730667 4.096-5.461334 4.096s-8.192 0-9.557333 1.365333c-1.365333 1.365333 1.365333 2.730667 1.365333 4.096 0 1.365333 2.730667 0 4.096 0 1.365333 1.365333 6.826667 1.365333 8.192 2.730667 1.365333 0-4.096 1.365333-6.826666 1.365333s-2.730667 5.461333 0 6.826667 8.192 2.730667 8.192 1.365333 6.826667 1.365333 9.557333 2.730667c2.730667 0 4.096 8.192 4.096 9.557333 1.365333 1.365333 0 6.826667 0 8.192s4.096 4.096 5.461333 4.096c1.365333-1.365333 0 2.730667-1.365333 1.365334-1.365333 0-1.365333 5.461333 1.365333 6.826666 2.730667 1.365333 0 4.096-1.365333 5.461334-1.365333 0-1.365333 2.730667-2.730667 4.096-1.365333 1.365333 4.096 13.653333 2.730667 19.114666 0 5.461333 2.730667 10.922667 4.096 10.922667s6.826667 1.365333 6.826667 2.730667 2.730667 0 4.096-1.365334c1.365333-1.365333 2.730667-4.096 5.461333-5.461333 1.365333-2.730667 6.826667-13.653333 6.826667-15.018667 0-1.365333 5.461333 0 6.826666 0 1.365333 0 5.461333-2.730667 6.826667-4.096 1.365333-1.365333 9.557333-2.730667 12.288-4.096 2.730667-1.365333 6.826667-8.192 8.192-9.557333 1.365333-1.365333-1.365333-1.365333-2.730667-2.730667s-1.365333-2.730667 0-4.096c0 0 6.826667 1.365333 9.557334 2.730667 2.730667 1.365333 6.826667-1.365333 5.461333-2.730667-1.365333-1.365333 0-1.365333 0 0 1.365333 0 1.365333-4.096 1.365333-4.096-1.365333-1.365333 6.826667-5.461333 6.826667-10.922666-1.365333-5.461333 2.730667-9.557333 5.461333-9.557334 1.365333 0 1.365333-5.461333 0-6.826666-2.730667-1.365333 0-1.365333 1.365334-1.365334 1.365333-1.365333 2.730667-5.461333 2.730666-6.826666s4.096-1.365333 4.096-2.730667c1.365333-1.365333 5.461333-2.730667 8.192-2.730667-2.730667-2.730667-1.365333-5.461333-4.096-5.461333zM525.653333 223.914667c-1.365333-1.365333-6.826667 1.365333-6.826666 2.730666s-4.096-2.730667-6.826667-1.365333-4.096 6.826667-2.730667 6.826667c1.365333 1.365333 1.365333 5.461333 1.365334 5.461333 0 1.365333 5.461333 1.365333 6.826666 0 1.365333-1.365333 1.365333 4.096-1.365333 5.461333-1.365333 1.365333 0 4.096 1.365333 5.461334 1.365333 0 2.730667 4.096 5.461334 4.096 1.365333 0 5.461333-5.461333 5.461333-8.192 1.365333-2.730667 6.826667 0 8.192 1.365333 2.730667 1.365333 4.096-8.192 1.365333-9.557333-2.730667-1.365333-5.461333-1.365333-6.826666-2.730667-1.365333-1.365333-2.730667-2.730667-4.096-2.730667 0 0 0-5.461333-1.365334-6.826666zM546.133333 230.741333c4.096 1.365333 9.557333-2.730667 10.922667-2.730666 1.365333-1.365333-12.288-5.461333-17.749333-5.461334-5.461333-1.365333-9.557333 0-9.557334 0 1.365333 1.365333 12.288 6.826667 16.384 8.192zM454.656 339.968c-1.365333 0-2.730667 4.096-2.730667 5.461333s4.096 1.365333 5.461334 1.365334c1.365333 0 2.730667-1.365333 2.730666-2.730667s-1.365333-8.192-2.730666-8.192c1.365333 0-1.365333 5.461333-2.730667 4.096zM473.770667 292.181333c-1.365333-1.365333-8.192-2.730667-9.557334-2.730666-1.365333 0-6.826667-2.730667-8.192-4.096-1.365333-1.365333-2.730667 4.096-4.096 4.096-1.365333 0 0 1.365333 1.365334 1.365333s0 2.730667-1.365334 4.096c-1.365333 1.365333 4.096 2.730667 5.461334 4.096 0 1.365333 2.730667 2.730667 4.096 2.730667 2.730667 0 6.826667-1.365333 8.192-1.365334 2.730667 0 4.096-6.826667 4.096-8.192zM619.861333 266.24c2.730667-2.730667 12.288-4.096 13.653334-6.826667 1.365333-2.730667 0-4.096-1.365334-4.096s-2.730667 1.365333-2.730666 1.365334-12.288 2.730667-15.018667 4.096c-4.096 1.365333-8.192 4.096-9.557333 5.461333-1.365333 1.365333-5.461333 12.288-6.826667 13.653333-1.365333 1.365333 2.730667 6.826667 5.461333 8.192 1.365333 1.365333 5.461333 1.365333 5.461334 1.365334 1.365333 0 0-8.192-1.365334-10.922667 1.365333-5.461333 9.557333-9.557333 12.288-12.288zM610.304 237.568c2.730667 4.096 5.461333-1.365333 9.557333 0 1.365333-8.192-9.557333-6.826667-9.557333 0zM681.301333 245.76c0 1.365333 9.557333 4.096 13.653334 2.730667 2.730667 0 0-5.461333-4.096-5.461334-5.461333 1.365333-9.557333 1.365333-9.557334 2.730667zM307.2 283.989333c-1.365333 1.365333-1.365333 6.826667 1.365333 6.826667s6.826667-6.826667 8.192-5.461333c2.730667 1.365333 4.096 2.730667 4.096 1.365333s-6.826667-5.461333-8.192-5.461333c-1.365333-1.365333-4.096 1.365333-5.461333 2.730666zM315.392 454.656c0 1.365333 4.096 1.365333 5.461333 0s0-2.730667 0-2.730667c-1.365333 0-5.461333 2.730667-5.461333 2.730667zM296.277333 445.098667c2.730667 0 1.365333 2.730667 1.365334 4.096 0 1.365333 5.461333 2.730667 6.826666 4.096s4.096-1.365333 5.461334-1.365334c2.730667 0 0-6.826667-4.096-6.826666s-5.461333-4.096-6.826667-4.096c-1.365333 0-4.096-2.730667-5.461333-4.096-1.365333-1.365333-9.557333-2.730667-12.288-2.730667-2.730667 0-6.826667 2.730667-6.826667 4.096s4.096 2.730667 6.826667 1.365333c1.365333 0 8.192 1.365333 9.557333 4.096 0 0 2.730667 1.365333 5.461333 1.365334zM286.72 451.925333c0 1.365333 4.096 1.365333 5.461333 1.365334 1.365333 0 1.365333 0 0-1.365334s-5.461333-1.365333-5.461333 0zM292.181333 428.714667c-1.365333 0-2.730667 1.365333-2.730666 2.730666s0 1.365333 1.365333 1.365334 2.730667-4.096 1.365333-4.096zM301.738667 430.08c0-1.365333-2.730667-1.365333-2.730667-1.365333s-1.365333 1.365333-1.365333 2.730666 4.096 0 4.096-1.365333zM307.2 441.002667c1.365333-1.365333 2.730667-2.730667 1.365333-2.730667s-2.730667-4.096-4.096-4.096c-1.365333 0-2.730667 1.365333-2.730666 2.730667s0 1.365333 1.365333 1.365333c1.365333 1.365333 2.730667 4.096 4.096 2.730667zM798.72 562.517333H791.893333c0-1.365333-1.365333 1.365333-2.730666 1.365334s-1.365333 2.730667 1.365333 2.730666c1.365333 0 5.461333 2.730667 8.192 5.461334 1.365333-4.096 1.365333-6.826667 2.730667-10.922667-1.365333 0-2.730667 1.365333-2.730667 1.365333z" fill="#FFFFFF" p-id="4935"></path><path d="M550.229333 647.168l-4.096-12.288c124.245333-28.672 237.568-72.362667 319.488-122.88 77.824-47.786667 117.418667-96.938667 109.226667-136.533333-10.922667-49.152-84.650667-76.458667-207.530667-77.824v-12.288c128.341333 0 207.530667 31.402667 219.818667 87.381333 10.922667 45.056-30.037333 98.304-114.688 150.186667-81.92 50.517333-196.608 95.573333-322.218667 124.245333z" fill="#494E51" p-id="4936"></path><path d="M273.066667 682.666667c-24.576 0-46.421333-1.365333-68.266667-2.730667-98.304-9.557333-158.378667-38.229333-169.301333-83.285333-12.288-53.248 36.864-109.226667 146.090666-166.570667l5.461334 10.922667C86.016 494.250667 36.864 546.133333 47.786667 592.554667c9.557333 38.229333 66.901333 65.536 158.378666 73.728 95.573333 8.192 215.722667-2.730667 341.333334-31.402667l2.730666 12.288C451.925333 670.378667 356.352 682.666667 273.066667 682.666667z" fill="#494E51" p-id="4937"></path><path d="M793.258667 871.082667l-5.461334 2.730666c-10.922667 6.826667-25.941333 4.096-32.768-6.826666L546.133333 551.594667c-6.826667-10.922667-4.096-25.941333 6.826667-32.768l5.461333-2.730667c10.922667-6.826667 25.941333-4.096 32.768 6.826667l208.896 315.392c6.826667 10.922667 4.096 25.941333-6.826666 32.768z" fill="#FFFFFF" p-id="4938"></path><path d="M375.169599 514.837691a173.397333 173.397333 0 1 0 344.658976-38.428253 173.397333 173.397333 0 1 0-344.658976 38.428253Z" fill="#FFFFFF" p-id="4939"></path><path d="M679.936 626.688c38.229333-34.133333 58.709333-86.016 53.248-140.629333C722.261333 395.946667 641.706667 330.410667 551.594667 341.333333S395.946667 432.810667 405.504 522.922667 496.981333 678.570667 587.093333 667.648c16.384-1.365333 31.402667-5.461333 45.056-12.288 0 0 110.592 161.109333 143.36 208.896 4.096 5.461333 19.114667 6.826667 28.672 0 10.922667-6.826667 13.653333-20.48 9.557334-25.941333-34.133333-53.248-133.802667-211.626667-133.802667-211.626667z" fill="#C5F0FF" p-id="4940"></path><path d="M503.808 821.930667c-184.32 0-333.141333-150.186667-333.141333-333.141334 0-184.32 150.186667-333.141333 333.141333-333.141333s333.141333 150.186667 333.141333 333.141333c0 182.954667-148.821333 333.141333-333.141333 333.141334z m0-653.994667c-176.128 0-319.488 143.36-319.488 319.488S327.68 808.277333 503.808 808.277333c176.128 0 319.488-143.36 319.488-319.488S679.936 167.936 503.808 167.936z" fill="#494E51" p-id="4941"></path><path d="M547.498667 675.84c-40.96 0-80.554667-13.653333-111.957334-39.594667-38.229333-30.037333-61.44-72.362667-66.901333-121.514666-10.922667-98.304 60.074667-188.416 159.744-199.338667 98.304-10.922667 188.416 60.074667 199.338667 159.744 5.461333 47.786667-8.192 95.573333-38.229334 132.437333-30.037333 38.229333-72.362667 61.44-121.514666 66.901334-6.826667 0-13.653333 1.365333-20.48 1.365333z m0-348.16c-6.826667 0-12.288 0-19.114667 1.365333-91.477333 9.557333-158.378667 92.842667-147.456 184.32 5.461333 45.056 27.306667 84.650667 61.44 111.957334 35.498667 27.306667 79.189333 40.96 122.88 35.498666 45.056-5.461333 84.650667-27.306667 111.957333-61.44 27.306667-35.498667 40.96-79.189333 35.498667-122.88-8.192-86.016-80.554667-148.821333-165.205333-148.821333z" fill="#01AFFA" p-id="4942"></path><path d="M664.917333 623.957333L805.546667 835.584c8.192 13.653333 5.461333 31.402667-8.192 40.96l-6.826667 4.096c-5.461333 2.730667-10.922667 4.096-16.384 4.096h-5.461333c-8.192-1.365333-13.653333-5.461333-19.114667-12.288L608.938667 660.821333m10.922666-6.826666l140.629334 211.626666c2.730667 4.096 5.461333 5.461333 10.922666 6.826667 4.096 1.365333 8.192 0 12.288-2.730667l6.826667-4.096c6.826667-5.461333 9.557333-15.018667 4.096-21.845333L653.994667 630.784" fill="#01AFFA" p-id="4943"></path></svg>